<svg width="38" height="67" viewBox="0 0 38 67" fill="none" xmlns="http://www.w3.org/2000/svg">
<path opacity="0.15" fill-rule="evenodd" clip-rule="evenodd" d="M30.8474 37.7495C37.534 26.1681 33.3735 13.2273 22.6118 7.01396C11.8502 0.800827 -1.87657 4.42931 -8.12372 15.2496C-7.76858 15.4546 -1.62853 18.9995 -1.62853 18.9995C1.95865 21.0706 3.18775 25.6576 1.11651 29.245L-4.50847 38.9877C-6.52272 42.4764 -11.2139 43.572 -14.7535 41.7327C-14.7526 41.7452 -21.2489 37.983 -21.2489 37.983C-24.836 35.912 -26.065 31.3247 -23.9939 27.7377L-18.3689 17.995C-16.9608 15.5558 -14.3884 14.2418 -11.7591 14.279C-11.4873 13.7031 -11.2265 13.1238 -10.9025 12.5626C-3.91278 0.456127 11.9317 -3.48224 24.4867 3.76643C37.042 11.0152 41.5535 26.7061 34.5638 38.8126C34.2399 39.3737 33.8685 39.8892 33.5056 40.4125C34.8526 42.6709 35.0008 45.5558 33.5925 47.9949L27.9675 57.7376C25.8965 61.3246 21.3095 62.554 17.7224 60.4829L14.9099 65.3542C14.3922 66.2509 13.2455 66.5582 12.3485 66.0404C11.4519 65.5226 11.1447 64.3758 11.6623 63.4791L14.4746 58.6079C14.4746 58.6079 11.2159 56.7382 11.2272 56.7327C7.86462 54.5868 6.46767 49.9765 8.48191 46.4876L14.1069 36.7449C16.1781 33.1576 20.7651 31.9285 24.3522 33.9995C24.3522 33.9995 30.4921 37.5444 30.8474 37.7495ZM-14.2968 37.6665L-12.8786 38.4853C-11.085 39.5208 -8.79148 38.9061 -7.75599 37.1126L-2.13115 27.3699C-1.09539 25.5761 -1.71005 23.2828 -3.50357 22.2473L-5.54659 21.0679C-7.59927 22.8824 -9.46743 25.0769 -10.97 27.6795C-12.8451 30.9276 -13.9064 34.3484 -14.2968 37.6665ZM-15.1214 19.8699L-20.7463 29.6127C-21.7819 31.406 -21.1673 33.6998 -19.3738 34.7353L-17.8408 35.6204C-17.2459 32.3661 -16.0745 29.0211 -14.2175 25.8045C-12.7241 23.2179 -10.9287 20.9884 -8.97843 19.0865L-9.99876 18.4974C-11.7923 17.4618 -14.0858 18.0761 -15.1214 19.8699ZM24.5201 38.4268L22.4771 37.2474C20.6835 36.2118 18.3902 36.826 17.3546 38.62L11.7296 48.3627C10.6941 50.1562 11.3085 52.4498 13.1022 53.4852L14.5204 54.3041C17.1987 52.3069 19.6306 49.6775 21.5059 46.4295C23.0085 43.8269 23.9751 41.1117 24.5201 38.4268ZM30.3449 46.12C31.3806 44.3261 30.766 42.0329 28.9723 40.9974L27.952 40.4082C27.2799 43.0482 26.2469 45.7178 24.7536 48.3046C22.8966 51.5211 20.5852 54.2079 18.0646 56.3503L19.5973 57.2353C21.391 58.2708 23.6845 57.6561 24.72 55.8625L30.3449 46.12Z" fill="white"/>
</svg>
