<svg width="11" height="10" viewBox="0 0 11 10" fill="none" xmlns="http://www.w3.org/2000/svg">
<path fill-rule="evenodd" clip-rule="evenodd" d="M7.27916 3.2596C6.81726 2.79095 6.17567 2.49993 5.46566 2.49993C4.75565 2.49993 4.11406 2.79095 3.65242 3.2596H0.498291V1.96742C0.498291 1.30415 0.826855 0.718262 1.32953 0.361844V2.48046H1.73285V0.141572C1.82429 0.104908 1.91925 0.0748532 2.0169 0.052105V2.48046H2.42029V0.00101008C2.42642 0.000907193 2.43247 0.000725638 2.4385 0.000544557C2.44759 0.00027174 2.45665 0 2.46588 0H2.69887V2.48046H3.10221V0H8.47867C9.56511 0 10.4461 0.880938 10.4459 1.96742V3.2596H7.27916ZM8.16766 0.822597C7.99325 0.822597 7.85196 0.963922 7.85196 1.13806V2.22541C7.85196 2.39957 7.99325 2.54088 8.16766 2.54088H9.23109C9.40556 2.54088 9.54686 2.39957 9.54686 2.22541V1.13806C9.54686 0.963922 9.40556 0.822597 9.23109 0.822597H8.16766ZM6.27452 3.25959C6.45088 3.33998 6.61313 3.44533 6.75706 3.57134C7.16709 3.93123 7.42674 4.45839 7.42674 5.04536C7.42674 6.12685 6.54708 7.00653 5.46567 7.00653C4.3845 7.00653 3.50485 6.12685 3.50485 5.04536C3.50485 4.45839 3.76443 3.93123 4.17453 3.57134C4.31821 3.44533 4.48065 3.33998 4.65676 3.25959C4.90367 3.14756 5.17749 3.08437 5.46567 3.08437C5.7541 3.08437 6.02786 3.14756 6.27452 3.25959ZM4.02288 5.04536C4.02288 5.84584 4.67168 6.49473 5.47213 6.49473C6.27257 6.49473 6.92137 5.84584 6.92137 5.04536C6.92137 4.24506 6.27257 3.59629 5.47213 3.59629C4.67168 3.59629 4.02288 4.24506 4.02288 5.04536ZM8.47868 10H2.46589C1.37939 10 0.498297 9.11912 0.498297 8.03265V3.57135H3.39133C3.09506 3.98744 2.92033 4.49583 2.92033 5.04536C2.92033 6.45133 4.06007 7.59104 5.46567 7.59104C6.87152 7.59104 8.01119 6.45133 8.01119 5.04536C8.01119 4.49583 7.83634 3.98744 7.5402 3.57135H10.4461V8.03265C10.4461 9.11912 9.56536 10 8.47868 10Z" fill="white"/>
</svg>
