<svg width="11" height="10" viewBox="0 0 11 10" fill="none" xmlns="http://www.w3.org/2000/svg">
<path fill-rule="evenodd" clip-rule="evenodd" d="M1.66598 2.46035C2.33977 2.46035 2.88597 1.90936 2.88597 1.23021C2.88597 0.550751 2.33977 0 1.66598 0C0.992308 0 0.446167 0.550751 0.446167 1.23021C0.446167 1.90936 0.992308 2.46035 1.66598 2.46035ZM0.644518 10H2.7073V3.33326H0.644518V10ZM7.26167 5.00501C6.43615 5.00501 6.00469 5.56313 6.00469 6.50054V10H4.02615V3.33326H6.00469V4.23129C6.00469 4.23129 6.59979 3.12986 8.01297 3.12986C9.42622 3.12986 10.4377 3.99312 10.4377 5.7788V10H8.38484V6.50054C8.38484 5.54063 8.02041 5.00501 7.26167 5.00501Z" fill="white"/>
</svg>
