<svg width="61" height="63" viewBox="0 0 61 63" fill="none" xmlns="http://www.w3.org/2000/svg">
<path opacity="0.15" fill-rule="evenodd" clip-rule="evenodd" d="M32.9724 53.1991C29.8878 56.6884 24.6764 57.6467 20.487 55.2279C16.2974 52.809 14.5218 47.8167 16.0011 43.4007L0.238098 34.3L15.1663 24.4437L23.1664 10.5869C28.6892 1.02109 40.921 -2.25642 50.4868 3.2664C60.0527 8.78929 63.3303 21.0211 57.8074 30.5869L49.8073 44.4435L48.7355 62.3L32.9724 53.1991ZM22.4867 51.7641C24.7459 53.0683 27.4863 52.7166 29.3647 51.1162L19.6088 45.4837C19.162 47.9105 20.2276 50.4598 22.4867 51.7641ZM46.3431 42.4435L54.3433 28.5869C58.7614 20.9345 56.1394 11.1489 48.4869 6.73065C40.8341 2.31239 31.0486 4.93462 26.6305 12.5868L18.6304 26.4436L7.43417 33.8358L45.5393 55.8358L46.3431 42.4435Z" fill="white"/>
</svg>
