<svg width="62" height="51" viewBox="0 0 62 51" fill="none" xmlns="http://www.w3.org/2000/svg">
<path opacity="0.15" fill-rule="evenodd" clip-rule="evenodd" d="M38.8499 49.3782L6.37393 30.628C0.993168 27.5215 -0.869147 20.6734 2.21432 15.3326L7.79782 5.66175C10.8812 0.321155 17.743 -1.49025 23.1238 1.61636L55.5999 20.3663C60.9806 23.473 62.8429 30.3211 59.7593 35.6618L54.1758 45.3327C51.0924 50.6733 44.2306 52.4847 38.8499 49.3782ZM56.5118 33.7867C58.5674 30.2263 57.3259 25.6611 53.7387 23.5899L21.2627 4.83991C17.6755 2.76893 13.1011 3.97638 11.0455 7.53682L5.46198 17.2077C3.40642 20.7681 4.64773 25.3336 8.23488 27.4047L40.7108 46.1547C44.2981 48.2258 48.8727 47.0181 50.9283 43.4577L56.5118 33.7867ZM46.1754 38.5648C44.8303 37.7881 44.3648 36.0759 45.1357 34.7408C45.9067 33.4055 47.6222 32.9527 48.9673 33.7292C50.3125 34.5059 50.778 36.2179 50.007 37.5532C49.2362 38.8884 47.5207 39.3414 46.1754 38.5648ZM45.0264 29.305C43.6813 28.5285 43.2157 26.8162 43.9866 25.4809C44.7573 24.1461 46.4728 23.6931 47.8181 24.4698C49.1632 25.2464 49.6288 26.9584 48.8581 28.2935C48.0871 29.6288 46.3715 30.0817 45.0264 29.305ZM40.7203 38.6384C39.9494 39.9737 38.2339 40.4266 36.8887 39.65C35.5435 38.8732 35.0779 37.1612 35.849 35.8258C36.6198 34.4906 38.335 34.0381 39.6804 34.8147C41.0255 35.5915 41.4912 37.3031 40.7203 38.6384ZM35.7396 30.3902C34.3944 29.6136 33.9289 27.9015 34.6996 26.5667C35.4707 25.2309 37.1861 24.7785 38.5312 25.5551C39.8764 26.3317 40.3421 28.0434 39.571 29.3791C38.8002 30.714 37.0849 31.1668 35.7396 30.3902ZM25.1849 24.2965L20.3136 21.4839L17.5219 26.3192C17.0079 27.2096 15.8643 27.5111 14.9676 26.9934C14.0708 26.4756 13.7603 25.3345 14.2744 24.4442L17.0659 19.609L12.1946 16.7964C11.2977 16.2787 10.9874 15.1372 11.5012 14.247C12.0152 13.357 13.1588 13.0552 14.0556 13.573L18.927 16.3855L21.7187 11.5503C22.2326 10.6599 23.3763 10.3579 24.2731 10.8756C25.1699 11.3933 25.4803 12.535 24.9662 13.4253L22.1747 18.2605L27.046 21.073C27.9427 21.5906 28.2532 22.7322 27.7394 23.6222C27.2254 24.5123 26.0816 24.8142 25.1849 24.2965Z" fill="white"/>
</svg>
