<svg width="9" height="16" viewBox="0 0 9 16" fill="none" xmlns="http://www.w3.org/2000/svg">
<path fill-rule="evenodd" clip-rule="evenodd" d="M0 10V3.50004H9.00007V10H0ZM0 2.00013C0 0.895423 0.895433 0 2 0H7.00007C8.10465 0 9.00007 0.895423 9.00007 2.00013V2.49996H0V2.00013ZM9.00007 11.0001V14C9.00007 15.1047 8.10465 16.0001 7.00007 16.0001H2C0.895433 16.0001 0 15.1047 0 14V11.0001H9.00007ZM4.49997 14C5.05239 14 5.50003 13.5524 5.50003 13.0001C5.50003 12.4478 5.05239 12 4.49997 12C3.94769 12 3.50004 12.4478 3.50004 13.0001C3.50004 13.5524 3.94769 14 4.49997 14Z" fill="#333333"/>
</svg>
