<svg width="31" height="68" viewBox="0 0 31 68" fill="none" xmlns="http://www.w3.org/2000/svg">
<path opacity="0.15" fill-rule="evenodd" clip-rule="evenodd" d="M49.8254 9.46877L41.4175 24.0987L55.1085 43.4383C56.1891 45.3523 57.428 47.2397 55.5656 50.4747C54.6166 52.1224 52.6413 55.5529 47.5708 52.6169L31.6253 41.137L24.6865 53.2105L29.0752 61.5292C29.7742 62.9218 30.1315 63.3838 29.3937 64.6656C28.2073 66.6048 27.2523 67.7011 25.6626 66.7808L14.8168 58.5662L2.28397 53.2747C0.0884453 52.0034 2.07811 49.4958 2.30617 48.9768C2.78557 48.0465 3.60295 47.5397 5.01793 47.5273L14.5328 47.367L21.5334 35.2659L3.62011 27.1686C-1.45031 24.2328 0.523985 20.8018 1.47247 19.1535C3.33481 15.9183 5.58421 16.0508 7.77691 16.0325L31.3466 18.3033L39.806 3.68054C41.4658 0.796335 45.2906 -0.796585 48.1549 0.862485C51.0191 2.52142 51.4853 6.58442 49.8254 9.46877ZM16.3645 55.4107C16.2437 55.341 6.78769 51.574 5.70745 50.9487L15.6355 50.9674L26.48 32.5639L5.50224 24.2934C4.88023 23.9777 3.86479 22.8285 4.8534 21.1112C5.23273 20.4518 6.76579 19.872 8.15689 19.9304L32.6787 22.0444L42.7577 4.9402C43.4561 3.72794 45.3542 3.32354 46.417 3.93808C47.4797 4.55281 48.0262 6.36484 47.3276 7.57668L37.4621 24.7449L51.6407 45.0188C52.3868 46.1977 52.5644 47.8578 52.1848 48.517C51.1048 50.3932 49.8626 49.9714 49.1383 49.5009L31.3628 35.3588L20.8046 53.7322L25.9924 62.694C24.6909 61.9404 16.5478 55.5167 16.3645 55.4107Z" fill="white"/>
</svg>
