<svg width="14" height="10" viewBox="0 0 14 10" fill="none" xmlns="http://www.w3.org/2000/svg">
<path fill-rule="evenodd" clip-rule="evenodd" d="M0.789845 8.86559C-0.593333 8.70754 3.31408 10 4.78641 10C9.62731 10 12.362 6.04122 12.1973 2.49053C12.7066 2.13469 13.1488 1.69001 13.4983 1.18369C13.0304 1.38445 12.528 1.52028 12.0006 1.58115C12.5389 1.2691 12.9524 0.774156 13.147 0.184567C12.6432 0.473935 12.0851 0.684092 11.4915 0.797302C11.016 0.306482 10.3384 0 9.58828 0C7.90562 0 6.66841 1.52058 7.0484 3.09991C4.88151 2.99449 2.96032 1.98947 1.67475 0.462177C0.991706 1.59682 1.32038 3.08127 2.48157 3.83243C2.05413 3.81944 1.65187 3.70569 1.30025 3.51677C1.27218 4.68634 2.13772 5.77988 3.39157 6.02404C3.02476 6.12067 2.6228 6.14275 2.21451 6.0672C2.54593 7.07014 3.509 7.79969 4.64976 7.82016C3.55377 8.65215 2.17302 9.02364 0.789845 8.86559Z" fill="white"/>
</svg>
