<svg width="13" height="9" viewBox="0 0 13 9" fill="none" xmlns="http://www.w3.org/2000/svg">
<path d="M4.64348 6.81141H4.644C4.64443 6.81141 4.64486 6.81133 4.6453 6.81133H10.6831C10.8317 6.81133 10.9624 6.71272 11.0033 6.5698L12.3354 1.90753C12.3641 1.80702 12.3439 1.69896 12.2811 1.61553C12.2181 1.5321 12.1197 1.48302 12.0152 1.48302H3.87545L3.63739 0.411718C3.60349 0.259345 3.46837 0.15094 3.31227 0.15094H1.31415C1.13021 0.15094 0.981133 0.300018 0.981133 0.483959C0.981133 0.6679 1.13021 0.816979 1.31415 0.816979H3.04516C3.08731 1.00682 4.18436 5.94365 4.2475 6.22767C3.89358 6.38152 3.64529 6.7344 3.64529 7.14435C3.64529 7.69521 4.09348 8.1434 4.64434 8.1434H10.6831C10.867 8.1434 11.0161 7.99432 11.0161 7.81038C11.0161 7.62644 10.867 7.47736 10.6831 7.47736H4.64434C4.46075 7.47736 4.31133 7.32794 4.31133 7.14435C4.31133 6.96101 4.46023 6.81185 4.64348 6.81141V6.81141ZM11.5737 2.14906L10.4319 6.14529H4.91145L4.0234 2.14906H11.5737Z" fill="white"/>
</svg>
